%TF.GenerationSoftware,KiCad,Pcbnew,10.0.5*%
%TF.CreationDate,2026-08-31T22:29:16+02:00*%
%TF.ProjectId,KiCad,4b694361-642e-46b6-9963-61645f706362,rev?*%
%TF.SameCoordinates,Original*%
%TF.FileFunction,Copper,L2,Bot*%
%TF.FilePolarity,Positive*%
%FSLAX46Y46*%
G04 Gerber Fmt 4.6, Leading zero omitted, Abs format (unit mm)*
G04 Created by KiCad (PCBNEW 10.0.5) date 2026-08-31 22:29:16*
%MOMM*%
%LPD*%
G01*
G04 APERTURE LIST*
G04 Aperture macros list*
%AMRoundRect*
0 Rectangle with rounded corners*
0 $1 Rounding radius*
0 $2 $3 $4 $5 $6 $7 $8 $9 X,Y pos of 4 corners*
0 Add a 4 corners polygon primitive as box body*
4,1,4,$2,$3,$4,$5,$6,$7,$8,$9,$2,$3,0*
0 Add four circle primitives for the rounded corners*
1,1,$1+$1,$2,$3*
1,1,$1+$1,$4,$5*
1,1,$1+$1,$6,$7*
1,1,$1+$1,$8,$9*
0 Add four rect primitives between the rounded corners*
20,1,$1+$1,$2,$3,$4,$5,0*
20,1,$1+$1,$4,$5,$6,$7,0*
20,1,$1+$1,$6,$7,$8,$9,0*
20,1,$1+$1,$8,$9,$2,$3,0*%
G04 Aperture macros list end*
%TA.AperFunction,ComponentPad*%
%ADD10RoundRect,0.250000X-0.750000X1.000000X-0.750000X-1.000000X0.750000X-1.000000X0.750000X1.000000X0*%
%TD*%
%TA.AperFunction,ComponentPad*%
%ADD11RoundRect,0.250000X-1.000000X-0.750000X1.000000X-0.750000X1.000000X0.750000X-1.000000X0.750000X0*%
%TD*%
%TA.AperFunction,Conductor*%
%ADD12C,2.000000*%
%TD*%
G04 APERTURE END LIST*
D10*
%TO.P,IC1,1,IO4_1*%
%TO.N,unconnected-(IC1-IO4-Pad1)*%
X20000000Y27500000D03*
%TO.P,IC1,2,IO2_2*%
%TO.N,unconnected-(IC1-IO2-Pad2)*%
X22540000Y27500000D03*
%TO.P,IC1,3,IO14_3*%
%TO.N,unconnected-(IC1-IO14-Pad3)*%
X25080000Y27500000D03*
%TO.P,IC1,4,IO15_4*%
%TO.N,unconnected-(IC1-IO15-Pad4)*%
X27620000Y27500000D03*
%TO.P,IC1,5,IO13_5*%
%TO.N,unconnected-(IC1-IO13-Pad5)*%
X30160000Y27500000D03*
%TO.P,IC1,6,IO12_6*%
%TO.N,unconnected-(IC1-IO12-Pad6)*%
X32700000Y27500000D03*
%TO.P,IC1,7,GND_1_7*%
%TO.N,GND*%
X35240000Y27500000D03*
%TO.P,IC1,8,5V_8*%
%TO.N,+5V*%
X37780000Y27500000D03*
%TO.P,IC1,9,3V3_9*%
%TO.N,unconnected-(IC1-3V3-Pad9)*%
X37780000Y4640000D03*
%TO.P,IC1,10,IO16_10*%
%TO.N,unconnected-(IC1-IO16-Pad10)*%
X35240000Y4640000D03*
%TO.P,IC1,11,IO0_11*%
%TO.N,unconnected-(IC1-IO0-Pad11)*%
X32700000Y4640000D03*
%TO.P,IC1,12,GND_2_12*%
%TO.N,unconnected-(IC1-GND_2-Pad12)*%
X30160000Y4640000D03*
%TO.P,IC1,13,VCC_13*%
%TO.N,unconnected-(IC1-VCC-Pad13)*%
X27620000Y4640000D03*
%TO.P,IC1,14,U0R_14*%
%TO.N,/RX*%
X25080000Y4640000D03*
%TO.P,IC1,15,U0T_15*%
%TO.N,/TX*%
X22540000Y4640000D03*
%TO.P,IC1,16,GND_3_16*%
%TO.N,unconnected-(IC1-GND_3-Pad16)*%
X20000000Y4640000D03*
%TD*%
D11*
%TO.P,J2,1,Pin_1_1*%
%TO.N,GND*%
X2500000Y20705000D03*
%TO.P,J2,2,Pin_2_2*%
%TO.N,unconnected-(J2-Pin_2-Pad2)*%
X2500000Y18165000D03*
%TO.P,J2,3,Pin_3_3*%
%TO.N,+5V*%
X2500000Y15625000D03*
%TO.P,J2,4,Pin_4_4*%
%TO.N,/RX*%
X2500000Y13085000D03*
%TO.P,J2,5,Pin_5_5*%
%TO.N,/TX*%
X2500000Y10545000D03*
%TD*%
%TO.N,GND*%
D12*
X35240000Y25240000D02*
X35240000Y27860000D01*
X2500000Y20705000D02*
X30705000Y20705000D01*
X30705000Y20705000D02*
X35240000Y25240000D01*
%TO.N,+5V*%
X37780000Y22780000D02*
X37780000Y27860000D01*
X30625000Y15625000D02*
X37780000Y22780000D01*
X2500000Y15625000D02*
X30625000Y15625000D01*
%TO.N,/RX*%
X21915000Y13085000D02*
X25080000Y9920000D01*
X25080000Y9920000D02*
X25080000Y5000000D01*
X2500000Y13085000D02*
X21915000Y13085000D01*
%TO.N,/TX*%
X20000000Y10545000D02*
X22540000Y8005000D01*
X2500000Y10545000D02*
X20000000Y10545000D01*
X22540000Y8005000D02*
X22540000Y5000000D01*
%TD*%
M02*
