M48
; DRILL file {KiCad 7.0.9} date Thu Nov 14 22:05:49 2024
; FORMAT={-:-/ absolute / metric / decimal}
; #@! TF.CreationDate,2024-11-14T22:05:49+01:00
; #@! TF.GenerationSoftware,Kicad,Pcbnew,7.0.9
; #@! TF.FileFunction,Plated,1,2,PTH
FMAT,2
METRIC
; #@! TA.AperFunction,Plated,PTH,ViaDrill
T1C0.800
; #@! TA.AperFunction,Plated,PTH,ComponentDrill
T2C0.800
; #@! TA.AperFunction,Plated,PTH,ComponentDrill
T3C0.900
; #@! TA.AperFunction,Plated,PTH,ComponentDrill
T4C1.100
; #@! TA.AperFunction,Plated,PTH,ComponentDrill
T5C1.200
; #@! TA.AperFunction,Plated,PTH,ViaDrill
T6C2.000
%
G90
G05
T1
X16.51Y40.64
X16.51Y6.35
X20.32Y74.93
X20.32Y40.64
X21.59Y21.59
X21.59Y6.35
X22.55Y77.78
X22.86Y59.69
X24.13Y17.78
X24.13Y3.81
X25.4Y59.69
X25.4Y25.4
X26.67Y17.78
X34.29Y67.31
X34.29Y33.02
X35.56Y15.24
X35.56Y8.89
X36.83Y64.77
X36.83Y30.48
X44.45Y62.23
X44.45Y27.94
X44.45Y24.13
X49.53Y78.74
X49.53Y40.64
X52.07Y15.24
X52.07Y6.35
X54.61Y24.13
X58.42Y17.78
X67.31Y54.61
X67.31Y36.83
X69.85Y57.15
X69.85Y17.78
X72.39Y81.28
X72.39Y49.53
X73.66Y39.37
X73.66Y8.89
X77.47Y69.85
X77.47Y54.61
X80.01Y64.77
X80.01Y7.62
T2
X27.94Y43.18
X27.94Y40.64
X27.94Y38.1
X27.94Y35.56
X27.94Y33.02
X27.94Y30.48
X27.94Y27.94
X27.94Y25.4
X27.95Y77.47
X27.95Y74.93
X27.95Y72.39
X27.95Y69.85
X27.95Y67.31
X27.95Y64.77
X27.95Y62.23
X27.95Y59.69
X31.75Y62.19
X31.75Y59.69
X31.75Y27.9
X31.75Y25.4
X40.64Y43.18
X40.64Y40.64
X40.64Y38.1
X40.64Y35.56
X40.64Y33.02
X40.64Y30.48
X40.64Y27.94
X40.64Y25.4
X40.65Y77.47
X40.65Y74.93
X40.65Y72.39
X40.65Y69.85
X40.65Y67.31
X40.65Y64.77
X40.65Y62.23
X40.65Y59.69
X58.42Y69.85
X58.42Y67.31
X58.42Y64.77
X58.42Y62.23
X58.42Y59.69
X58.42Y57.15
X58.42Y54.61
X58.42Y52.07
X58.42Y49.53
X58.42Y46.99
X58.42Y44.45
X58.42Y41.91
X58.42Y39.37
X58.42Y36.83
X58.42Y34.29
X58.42Y31.75
X58.42Y29.21
X58.42Y26.67
X58.42Y24.13
X66.04Y26.67
X66.04Y6.35
X83.82Y69.85
X83.82Y67.31
X83.82Y64.77
X83.82Y62.23
X83.82Y59.69
X83.82Y57.15
X83.82Y54.61
X83.82Y52.07
X83.82Y49.53
X83.82Y46.99
X83.82Y44.45
X83.82Y41.91
X83.82Y39.37
X83.82Y36.83
X83.82Y34.29
X83.82Y31.75
X83.82Y29.21
X83.82Y26.67
X83.82Y24.13
T3
X59.69Y6.35
X62.23Y6.35
T4
X39.37Y8.89
X41.91Y8.89
X44.45Y8.89
T5
X11.43Y81.28
X11.43Y77.78
X11.43Y71.235
X11.43Y67.735
X11.43Y64.235
X11.43Y60.735
X11.43Y54.725
X11.43Y51.225
X11.43Y47.725
X11.43Y44.225
X11.43Y36.945
X11.43Y33.445
X11.43Y29.945
X11.43Y26.445
X11.43Y19.7
X11.43Y16.2
X11.43Y12.7
X11.43Y9.2
T6
X3.81Y83.82
X3.81Y3.81
X83.82Y83.82
X83.82Y3.81
T0
M30
