%TF.GenerationSoftware,KiCad,Pcbnew,7.0.9*%
%TF.CreationDate,2024-11-14T22:10:43+01:00*%
%TF.ProjectId,BallBalancer-2,42616c6c-4261-46c6-916e-6365722d322e,rev?*%
%TF.SameCoordinates,Original*%
%TF.FileFunction,Copper,L2,Bot*%
%TF.FilePolarity,Positive*%
%FSLAX46Y46*%
G04 Gerber Fmt 4.6, Leading zero omitted, Abs format (unit mm)*
G04 Created by KiCad (PCBNEW 7.0.9) date 2024-11-14 22:10:43*
%MOMM*%
%LPD*%
G01*
G04 APERTURE LIST*
G04 Aperture macros list*
%AMRoundRect*
0 Rectangle with rounded corners*
0 $1 Rounding radius*
0 $2 $3 $4 $5 $6 $7 $8 $9 X,Y pos of 4 corners*
0 Add a 4 corners polygon primitive as box body*
4,1,4,$2,$3,$4,$5,$6,$7,$8,$9,$2,$3,0*
0 Add four circle primitives for the rounded corners*
1,1,$1+$1,$2,$3*
1,1,$1+$1,$4,$5*
1,1,$1+$1,$6,$7*
1,1,$1+$1,$8,$9*
0 Add four rect primitives between the rounded corners*
20,1,$1+$1,$2,$3,$4,$5,0*
20,1,$1+$1,$4,$5,$6,$7,0*
20,1,$1+$1,$6,$7,$8,$9,0*
20,1,$1+$1,$8,$9,$2,$3,0*%
G04 Aperture macros list end*
%TA.AperFunction,ComponentPad*%
%ADD10RoundRect,0.250000X-1.550000X0.650000X-1.550000X-0.650000X1.550000X-0.650000X1.550000X0.650000X0*%
%TD*%
%TA.AperFunction,ComponentPad*%
%ADD11O,3.600000X1.800000*%
%TD*%
%TA.AperFunction,ComponentPad*%
%ADD12C,1.600000*%
%TD*%
%TA.AperFunction,ComponentPad*%
%ADD13C,2.000000*%
%TD*%
%TA.AperFunction,ComponentPad*%
%ADD14R,1.800000X1.800000*%
%TD*%
%TA.AperFunction,ComponentPad*%
%ADD15C,1.800000*%
%TD*%
%TA.AperFunction,ComponentPad*%
%ADD16O,1.600000X1.600000*%
%TD*%
%TA.AperFunction,ComponentPad*%
%ADD17R,1.600000X1.600000*%
%TD*%
%TA.AperFunction,ComponentPad*%
%ADD18O,1.905000X2.000000*%
%TD*%
%TA.AperFunction,ComponentPad*%
%ADD19R,1.905000X2.000000*%
%TD*%
%TA.AperFunction,ViaPad*%
%ADD20C,1.000000*%
%TD*%
%TA.AperFunction,ViaPad*%
%ADD21C,3.000000*%
%TD*%
%TA.AperFunction,Conductor*%
%ADD22C,2.000000*%
%TD*%
G04 APERTURE END LIST*
D10*
%TO.P,J2,1,Pin_1*%
%TO.N,/Y-1B*%
X11430000Y36945000D03*
D11*
%TO.P,J2,2,Pin_2*%
%TO.N,/Y-1A*%
X11430000Y33445000D03*
%TO.P,J2,3,Pin_3*%
%TO.N,/Y-2A*%
X11430000Y29945000D03*
%TO.P,J2,4,Pin_4*%
%TO.N,/Y-2B*%
X11430000Y26445000D03*
%TD*%
D10*
%TO.P,J1,1,Pin_1*%
%TO.N,/X-1B*%
X11430000Y71235000D03*
D11*
%TO.P,J1,2,Pin_2*%
%TO.N,/X-1A*%
X11430000Y67735000D03*
%TO.P,J1,3,Pin_3*%
%TO.N,/X-2A*%
X11430000Y64235000D03*
%TO.P,J1,4,Pin_4*%
%TO.N,/X-2B*%
X11430000Y60735000D03*
%TD*%
D10*
%TO.P,J3,1,Pin_1*%
%TO.N,/GPIO32*%
X11430000Y54725000D03*
D11*
%TO.P,J3,2,Pin_2*%
%TO.N,/GPIO33*%
X11430000Y51225000D03*
%TO.P,J3,3,Pin_3*%
%TO.N,/GPIO25*%
X11430000Y47725000D03*
%TO.P,J3,4,Pin_4*%
%TO.N,/GPIO26*%
X11430000Y44225000D03*
%TD*%
%TO.P,J4,4,Pin_4*%
%TO.N,/GPIO21*%
X11430000Y9200000D03*
%TO.P,J4,3,Pin_3*%
%TO.N,/GPIO22*%
X11430000Y12700000D03*
%TO.P,J4,2,Pin_2*%
%TO.N,GND*%
X11430000Y16200000D03*
D10*
%TO.P,J4,1,Pin_1*%
%TO.N,+5V*%
X11430000Y19700000D03*
%TD*%
D12*
%TO.P,Cx1,1*%
%TO.N,+12V*%
X31750000Y59690000D03*
%TO.P,Cx1,2*%
%TO.N,GND*%
X31750000Y62190000D03*
%TD*%
D11*
%TO.P,J5,2,Pin_2*%
%TO.N,+12V*%
X11430000Y77780000D03*
D10*
%TO.P,J5,1,Pin_1*%
%TO.N,GND*%
X11430000Y81280000D03*
%TD*%
D13*
%TO.P,U2,J5_19,3V3*%
%TO.N,unconnected-(U2-3V3-PadJ5_19)*%
X58420000Y69850000D03*
%TO.P,U2,J5_18,EN*%
%TO.N,unconnected-(U2-EN-PadJ5_18)*%
X58420000Y67310000D03*
%TO.P,U2,J5_17,SP*%
%TO.N,unconnected-(U2-SP-PadJ5_17)*%
X58420000Y64770000D03*
%TO.P,U2,J5_16,SN*%
%TO.N,unconnected-(U2-SN-PadJ5_16)*%
X58420000Y62230000D03*
%TO.P,U2,J5_15,G34*%
%TO.N,unconnected-(U2-G34-PadJ5_15)*%
X58420000Y59690000D03*
%TO.P,U2,J5_14,G35*%
%TO.N,unconnected-(U2-G35-PadJ5_14)*%
X58420000Y57150000D03*
%TO.P,U2,J5_13,G32*%
%TO.N,/GPIO32*%
X58420000Y54610000D03*
%TO.P,U2,J5_12,G33*%
%TO.N,/GPIO33*%
X58420000Y52070000D03*
%TO.P,U2,J5_11,G25*%
%TO.N,/GPIO25*%
X58420000Y49530000D03*
%TO.P,U2,J5_10,G26*%
%TO.N,/GPIO26*%
X58420000Y46990000D03*
%TO.P,U2,J5_9,G27*%
%TO.N,/Y-DIR*%
X58420000Y44450000D03*
%TO.P,U2,J5_8,G14*%
%TO.N,unconnected-(U2-G14-PadJ5_8)*%
X58420000Y41910000D03*
%TO.P,U2,J5_7,G12*%
%TO.N,unconnected-(U2-G12-PadJ5_7)*%
X58420000Y39370000D03*
%TO.P,U2,J5_6,GND_J5_6*%
%TO.N,GND*%
X58420000Y36830000D03*
%TO.P,U2,J5_5,G13*%
%TO.N,unconnected-(U2-G13-PadJ5_5)*%
X58420000Y34290000D03*
%TO.P,U2,J5_4,SD2*%
%TO.N,unconnected-(U2-SD2-PadJ5_4)*%
X58420000Y31750000D03*
%TO.P,U2,J5_3,SD3*%
%TO.N,unconnected-(U2-SD3-PadJ5_3)*%
X58420000Y29210000D03*
%TO.P,U2,J5_2,CMD*%
%TO.N,unconnected-(U2-CMD-PadJ5_2)*%
X58420000Y26670000D03*
%TO.P,U2,J5_1,5V*%
%TO.N,+5V*%
X58420000Y24130000D03*
%TO.P,U2,J4_19,CLK*%
%TO.N,unconnected-(U2-CLK-PadJ4_19)*%
X83820000Y24130000D03*
%TO.P,U2,J4_18,SD0*%
%TO.N,unconnected-(U2-SD0-PadJ4_18)*%
X83820000Y26670000D03*
%TO.P,U2,J4_17,SD1*%
%TO.N,unconnected-(U2-SD1-PadJ4_17)*%
X83820000Y29210000D03*
%TO.P,U2,J4_16,G15*%
%TO.N,/MS3*%
X83820000Y31750000D03*
%TO.P,U2,J4_15,G2*%
%TO.N,/MS1*%
X83820000Y34290000D03*
%TO.P,U2,J4_14,G0*%
%TO.N,unconnected-(U2-G0-PadJ4_14)*%
X83820000Y36830000D03*
%TO.P,U2,J4_13,G4*%
%TO.N,/MS2*%
X83820000Y39370000D03*
%TO.P,U2,J4_12,G16*%
%TO.N,unconnected-(U2-G16-PadJ4_12)*%
X83820000Y41910000D03*
%TO.P,U2,J4_11,G17*%
%TO.N,unconnected-(U2-G17-PadJ4_11)*%
X83820000Y44450000D03*
%TO.P,U2,J4_10,G5*%
%TO.N,unconnected-(U2-G5-PadJ4_10)*%
X83820000Y46990000D03*
%TO.P,U2,J4_9,G18*%
%TO.N,/X-STEP*%
X83820000Y49530000D03*
%TO.P,U2,J4_8,G19*%
%TO.N,/Y-STEP*%
X83820000Y52070000D03*
%TO.P,U2,J4_7,GND_J4_7*%
%TO.N,GND*%
X83820000Y54610000D03*
%TO.P,U2,J4_6,G21*%
%TO.N,/GPIO21*%
X83820000Y57150000D03*
%TO.P,U2,J4_5,RXD*%
%TO.N,unconnected-(U2-RXD-PadJ4_5)*%
X83820000Y59690000D03*
%TO.P,U2,J4_4,TXD*%
%TO.N,unconnected-(U2-TXD-PadJ4_4)*%
X83820000Y62230000D03*
%TO.P,U2,J4_3,G22*%
%TO.N,/GPIO22*%
X83820000Y64770000D03*
%TO.P,U2,J4_2,G23*%
%TO.N,/X-DIR*%
X83820000Y67310000D03*
%TO.P,U2,J4_1,GND_J4_1*%
%TO.N,GND*%
X83820000Y69850000D03*
%TD*%
D14*
%TO.P,D1,1,K*%
%TO.N,GND*%
X59690000Y6350000D03*
D15*
%TO.P,D1,2,A*%
%TO.N,Net-(D1-A)*%
X62230000Y6350000D03*
%TD*%
D16*
%TO.P,A2,16,DIR*%
%TO.N,/Y-DIR*%
X40640000Y43180000D03*
%TO.P,A2,15,STEP*%
%TO.N,/Y-STEP*%
X40640000Y40640000D03*
%TO.P,A2,14,~{SLEEP}*%
%TO.N,Net-(A2-~{RESET})*%
X40640000Y38100000D03*
%TO.P,A2,13,~{RESET}*%
X40640000Y35560000D03*
%TO.P,A2,12,MS3*%
%TO.N,/MS3*%
X40640000Y33020000D03*
%TO.P,A2,11,MS2*%
%TO.N,/MS2*%
X40640000Y30480000D03*
%TO.P,A2,10,MS1*%
%TO.N,/MS1*%
X40640000Y27940000D03*
%TO.P,A2,9,~{ENABLE}*%
%TO.N,unconnected-(A2-~{ENABLE}-Pad9)*%
X40640000Y25400000D03*
%TO.P,A2,8,VMOT*%
%TO.N,+12V*%
X27940000Y25400000D03*
%TO.P,A2,7,GND*%
%TO.N,GND*%
X27940000Y27940000D03*
%TO.P,A2,6,2B*%
%TO.N,/Y-2B*%
X27940000Y30480000D03*
%TO.P,A2,5,2A*%
%TO.N,/Y-2A*%
X27940000Y33020000D03*
%TO.P,A2,4,1A*%
%TO.N,/Y-1A*%
X27940000Y35560000D03*
%TO.P,A2,3,1B*%
%TO.N,/Y-1B*%
X27940000Y38100000D03*
%TO.P,A2,2,VDD*%
%TO.N,+5V*%
X27940000Y40640000D03*
D17*
%TO.P,A2,1,GND*%
%TO.N,GND*%
X27940000Y43180000D03*
%TD*%
D12*
%TO.P,Cy1,1*%
%TO.N,+12V*%
X31750000Y25400000D03*
%TO.P,Cy1,2*%
%TO.N,GND*%
X31750000Y27900000D03*
%TD*%
%TO.P,R1,1*%
%TO.N,Net-(D1-A)*%
X66040000Y6350000D03*
D16*
%TO.P,R1,2*%
%TO.N,+5V*%
X66040000Y26670000D03*
%TD*%
D18*
%TO.P,U1,3,OUT*%
%TO.N,+5V*%
X44450000Y8890000D03*
%TO.P,U1,2,GND*%
%TO.N,GND*%
X41910000Y8890000D03*
D19*
%TO.P,U1,1,IN*%
%TO.N,+12V*%
X39370000Y8890000D03*
%TD*%
D16*
%TO.P,A1,16,DIR*%
%TO.N,/X-DIR*%
X40650000Y77470000D03*
%TO.P,A1,15,STEP*%
%TO.N,/X-STEP*%
X40650000Y74930000D03*
%TO.P,A1,14,~{SLEEP}*%
%TO.N,Net-(A1-~{RESET})*%
X40650000Y72390000D03*
%TO.P,A1,13,~{RESET}*%
X40650000Y69850000D03*
%TO.P,A1,12,MS3*%
%TO.N,/MS3*%
X40650000Y67310000D03*
%TO.P,A1,11,MS2*%
%TO.N,/MS2*%
X40650000Y64770000D03*
%TO.P,A1,10,MS1*%
%TO.N,/MS1*%
X40650000Y62230000D03*
%TO.P,A1,9,~{ENABLE}*%
%TO.N,unconnected-(A1-~{ENABLE}-Pad9)*%
X40650000Y59690000D03*
%TO.P,A1,8,VMOT*%
%TO.N,+12V*%
X27950000Y59690000D03*
%TO.P,A1,7,GND*%
%TO.N,GND*%
X27950000Y62230000D03*
%TO.P,A1,6,2B*%
%TO.N,/X-2B*%
X27950000Y64770000D03*
%TO.P,A1,5,2A*%
%TO.N,/X-2A*%
X27950000Y67310000D03*
%TO.P,A1,4,1A*%
%TO.N,/X-1A*%
X27950000Y69850000D03*
%TO.P,A1,3,1B*%
%TO.N,/X-1B*%
X27950000Y72390000D03*
%TO.P,A1,2,VDD*%
%TO.N,+5V*%
X27950000Y74930000D03*
D17*
%TO.P,A1,1,GND*%
%TO.N,GND*%
X27950000Y77470000D03*
%TD*%
D20*
%TO.N,+5V*%
X16510000Y6350000D03*
X16510000Y40640000D03*
%TO.N,GND*%
X21590000Y21590000D03*
X21590000Y6350000D03*
%TO.N,+12V*%
X22860000Y59690000D03*
X22550000Y77780000D03*
X35560000Y15240000D03*
X35560000Y8890000D03*
D21*
%TO.N,*%
X83820000Y3810000D03*
X83820000Y83820000D03*
X3810000Y83820000D03*
X3810000Y3810000D03*
D20*
%TO.N,GND*%
X77470000Y69850000D03*
X52070000Y6350000D03*
X52070000Y15240000D03*
X67310000Y54610000D03*
X67310000Y36830000D03*
X77470000Y54610000D03*
%TO.N,+5V*%
X44450000Y24130000D03*
X20320000Y74930000D03*
X54610000Y24130000D03*
X20320000Y40640000D03*
%TO.N,/GPIO22*%
X80010000Y64770000D03*
X80010000Y7620000D03*
X24130000Y3810000D03*
X24130000Y17780000D03*
%TO.N,/MS1*%
X44450000Y27940000D03*
X44450000Y62230000D03*
%TO.N,/GPIO21*%
X26670000Y17780000D03*
X69850000Y57150000D03*
X58420000Y17780000D03*
X69850000Y17780000D03*
%TO.N,/MS2*%
X73660000Y39370000D03*
X36830000Y64770000D03*
X36830000Y30480000D03*
X73660000Y8890000D03*
%TO.N,/MS3*%
X34290000Y33020000D03*
X34290000Y67310000D03*
%TO.N,+12V*%
X25400000Y25400000D03*
X25400000Y59690000D03*
%TO.N,/X-STEP*%
X72390000Y49530000D03*
X72390000Y81280000D03*
%TO.N,/Y-STEP*%
X49530000Y40640000D03*
X49530000Y78740000D03*
%TD*%
D22*
%TO.N,/GPIO25*%
X20320000Y49530000D02*
X58420000Y49530000D01*
X18515000Y47725000D02*
X11430000Y47725000D01*
X20320000Y49530000D02*
X18515000Y47725000D01*
%TO.N,GND*%
X19050000Y3810000D02*
X21590000Y6350000D01*
X41910000Y6350000D02*
X21590000Y6350000D01*
X3810000Y77037359D02*
X3810000Y8937292D01*
X8052641Y81280000D02*
X3810000Y77037359D01*
X11430000Y81280000D02*
X8052641Y81280000D01*
X3810000Y8937292D02*
X3762708Y8890000D01*
X3810000Y8890000D02*
X3762708Y8890000D01*
X19050000Y3810000D02*
X8890000Y3810000D01*
X8890000Y3810000D02*
X3810000Y8890000D01*
%TO.N,+5V*%
X20320000Y74930000D02*
X27950000Y74930000D01*
X66040000Y26670000D02*
X63500000Y24130000D01*
%TO.N,GND*%
X31750000Y43180000D02*
X31750000Y27900000D01*
X31750000Y43180000D02*
X27940000Y43180000D01*
%TO.N,+12V*%
X35560000Y25210000D02*
X35560000Y15240000D01*
X28035000Y25400000D02*
X35465000Y25400000D01*
X35465000Y25305000D02*
X35560000Y25210000D01*
X27950000Y59690000D02*
X22860000Y59690000D01*
%TO.N,GND*%
X59690000Y6350000D02*
X52070000Y6350000D01*
X41910000Y6350000D02*
X52070000Y6350000D01*
%TO.N,/GPIO32*%
X11545000Y54610000D02*
X11430000Y54725000D01*
X58420000Y54610000D02*
X11545000Y54610000D01*
%TO.N,/GPIO33*%
X15665000Y51225000D02*
X11430000Y51225000D01*
X16510000Y52070000D02*
X15665000Y51225000D01*
X58420000Y52070000D02*
X16510000Y52070000D01*
%TO.N,/GPIO26*%
X21590000Y46990000D02*
X18825000Y44225000D01*
X18825000Y44225000D02*
X11430000Y44225000D01*
X58420000Y46990000D02*
X21590000Y46990000D01*
%TO.N,+5V*%
X7620000Y38100000D02*
X7620000Y23495000D01*
X7620000Y38100000D02*
X10160000Y40640000D01*
X10160000Y40640000D02*
X16510000Y40640000D01*
X16510000Y8890000D02*
X19050000Y11430000D01*
X16510000Y6350000D02*
X16510000Y8890000D01*
%TO.N,GND*%
X18001802Y21590000D02*
X21590000Y21590000D01*
X11430000Y16200000D02*
X12611802Y16200000D01*
X12611802Y16200000D02*
X18001802Y21590000D01*
%TO.N,/GPIO21*%
X19050000Y15240000D02*
X13010000Y9200000D01*
X13010000Y9200000D02*
X11430000Y9200000D01*
X26670000Y15240000D02*
X19050000Y15240000D01*
X26670000Y17780000D02*
X26670000Y15240000D01*
%TO.N,/GPIO22*%
X12700000Y12700000D02*
X17780000Y17780000D01*
X11430000Y12700000D02*
X12700000Y12700000D01*
X17780000Y17780000D02*
X24130000Y17780000D01*
%TO.N,+5V*%
X11430000Y22860000D02*
X11430000Y19700000D01*
%TO.N,/Y-1B*%
X17780000Y38100000D02*
X16625000Y36945000D01*
X16625000Y36945000D02*
X11430000Y36945000D01*
X27940000Y38100000D02*
X17780000Y38100000D01*
%TO.N,/Y-1A*%
X17209466Y33445000D02*
X11430000Y33445000D01*
X27940000Y35560000D02*
X19324466Y35560000D01*
X19324466Y35560000D02*
X17209466Y33445000D01*
%TO.N,/Y-2A*%
X20320000Y33020000D02*
X17245000Y29945000D01*
X27940000Y33020000D02*
X20320000Y33020000D01*
X17245000Y29945000D02*
X11430000Y29945000D01*
%TO.N,/Y-2B*%
X17555000Y26445000D02*
X11430000Y26445000D01*
X21590000Y30480000D02*
X17555000Y26445000D01*
X27940000Y30480000D02*
X21590000Y30480000D01*
%TO.N,+5V*%
X16510000Y40640000D02*
X27940000Y40640000D01*
%TO.N,/X-1A*%
X17780000Y69850000D02*
X27950000Y69850000D01*
X15665000Y67735000D02*
X17780000Y69850000D01*
X11430000Y67735000D02*
X15665000Y67735000D01*
%TO.N,/X-2B*%
X17280534Y60735000D02*
X11430000Y60735000D01*
X21315534Y64770000D02*
X17280534Y60735000D01*
X27950000Y64770000D02*
X21315534Y64770000D01*
%TO.N,/X-2A*%
X20320000Y67310000D02*
X17245000Y64235000D01*
X27950000Y67310000D02*
X20320000Y67310000D01*
X17245000Y64235000D02*
X11430000Y64235000D01*
%TO.N,/X-1B*%
X12585000Y72390000D02*
X11430000Y71235000D01*
X27950000Y72390000D02*
X12585000Y72390000D01*
%TO.N,GND*%
X41910000Y6350000D02*
X41910000Y8890000D01*
%TO.N,+5V*%
X19050000Y11430000D02*
X44450000Y11430000D01*
X11430000Y22860000D02*
X7620000Y22860000D01*
X7620000Y22860000D02*
X7580000Y22820000D01*
%TO.N,GND*%
X21590000Y26670000D02*
X21590000Y21590000D01*
X22860000Y27940000D02*
X21590000Y26670000D01*
X27940000Y27940000D02*
X22860000Y27940000D01*
X31750000Y27940000D02*
X27940000Y27940000D01*
%TO.N,+5V*%
X44450000Y11430000D02*
X44450000Y12700000D01*
X44450000Y8890000D02*
X44450000Y11430000D01*
%TO.N,+12V*%
X11430000Y77780000D02*
X22550000Y77780000D01*
X27940000Y25400000D02*
X25400000Y25400000D01*
%TO.N,+5V*%
X43180000Y11430000D02*
X44450000Y12700000D01*
X44450000Y12700000D02*
X44450000Y24130000D01*
%TO.N,+12V*%
X39370000Y8890000D02*
X35560000Y8890000D01*
%TO.N,GND*%
X11430000Y81280000D02*
X27940000Y81280000D01*
X27940000Y81280000D02*
X27940000Y77470000D01*
%TO.N,+12V*%
X27950000Y59690000D02*
X31750000Y59690000D01*
%TO.N,GND*%
X30750000Y77470000D02*
X31750000Y76470000D01*
X27950000Y77470000D02*
X30750000Y77470000D01*
X31710000Y62230000D02*
X31750000Y62190000D01*
X27950000Y62230000D02*
X31710000Y62230000D01*
%TO.N,/MS3*%
X77470000Y31750000D02*
X83820000Y31750000D01*
X77470000Y11430000D02*
X77470000Y31750000D01*
X49530000Y11430000D02*
X77470000Y11430000D01*
X49530000Y33020000D02*
X49530000Y11430000D01*
X34290000Y33020000D02*
X49530000Y33020000D01*
%TO.N,/MS2*%
X46990000Y8890000D02*
X73660000Y8890000D01*
X36830000Y30480000D02*
X46990000Y30480000D01*
X46990000Y30480000D02*
X46990000Y8890000D01*
%TO.N,/MS1*%
X40640000Y27940000D02*
X44450000Y27940000D01*
X62230000Y49530000D02*
X69850000Y41910000D01*
X62230000Y76200000D02*
X62230000Y49530000D01*
X69850000Y41910000D02*
X69850000Y34290000D01*
X53340000Y76200000D02*
X62230000Y76200000D01*
X53340000Y62230000D02*
X53340000Y76200000D01*
X69850000Y34290000D02*
X83820000Y34290000D01*
X40650000Y62230000D02*
X53340000Y62230000D01*
%TO.N,/Y-STEP*%
X40640000Y40640000D02*
X49530000Y40640000D01*
%TO.N,/Y-DIR*%
X41910000Y44450000D02*
X40640000Y43180000D01*
X41910000Y44450000D02*
X58420000Y44450000D01*
%TO.N,/X-STEP*%
X45720000Y81280000D02*
X72390000Y81280000D01*
X45720000Y74930000D02*
X45720000Y81280000D01*
X40650000Y74930000D02*
X45720000Y74930000D01*
%TO.N,/X-DIR*%
X74930000Y67310000D02*
X83820000Y67310000D01*
X74930000Y83820000D02*
X74930000Y67310000D01*
X43180000Y83820000D02*
X74930000Y83820000D01*
X43180000Y77470000D02*
X43180000Y83820000D01*
X40650000Y77470000D02*
X43180000Y77470000D01*
%TO.N,GND*%
X52070000Y35560000D02*
X52070000Y15240000D01*
X53340000Y36830000D02*
X52070000Y35560000D01*
X58420000Y36830000D02*
X53340000Y36830000D01*
%TO.N,+5V*%
X58420000Y24130000D02*
X54610000Y24130000D01*
%TO.N,/GPIO21*%
X58420000Y17780000D02*
X69850000Y17780000D01*
%TO.N,GND*%
X31750000Y76470000D02*
X31750000Y62230000D01*
X83820000Y54610000D02*
X67310000Y54610000D01*
X83820000Y69850000D02*
X77470000Y69850000D01*
X67310000Y36830000D02*
X58420000Y36830000D01*
%TO.N,+5V*%
X58420000Y24130000D02*
X63500000Y24130000D01*
%TO.N,/GPIO22*%
X76200000Y3810000D02*
X73660000Y3810000D01*
X73660000Y3810000D02*
X24130000Y3810000D01*
X83820000Y64770000D02*
X80010000Y64770000D01*
X80010000Y7620000D02*
X76200000Y3810000D01*
%TO.N,/GPIO21*%
X83820000Y57150000D02*
X69850000Y57150000D01*
%TO.N,/MS2*%
X83820000Y39370000D02*
X73660000Y39370000D01*
X40650000Y64770000D02*
X36830000Y64770000D01*
X73660000Y39370000D02*
X74930000Y39370000D01*
%TO.N,/MS3*%
X34290000Y67310000D02*
X40650000Y67310000D01*
%TO.N,Net-(A1-~{RESET})*%
X40640000Y72390000D02*
X40640000Y69850000D01*
%TO.N,/X-STEP*%
X83820000Y49530000D02*
X72390000Y49530000D01*
%TO.N,Net-(A2-~{RESET})*%
X40640000Y38100000D02*
X40640000Y35560000D01*
%TO.N,/Y-STEP*%
X64770000Y78740000D02*
X49530000Y78740000D01*
X83820000Y52070000D02*
X64770000Y52070000D01*
X64770000Y52070000D02*
X64770000Y78740000D01*
%TO.N,Net-(D1-A)*%
X64770000Y6350000D02*
X66040000Y6350000D01*
X62230000Y6350000D02*
X64770000Y6350000D01*
%TD*%
M02*
